<!--?xml version="1.0" encoding="utf-8"?-->
<!-- Generator: Adobe Illustrator 19.1.1, SVG Export Plug-In . SVG Version: 6.00 Build 0)  -->
<svg version="1.1" id="_x31_0" xmlns="http://www.w3.org/2000/svg" xmlns:xlink="http://www.w3.org/1999/xlink" x="0px" y="0px" viewBox="0 0 512 512" style="width: 64px; height: 64px; opacity: 1;" xml:space="preserve">
<style type="text/css">
	.st0{fill:#374149;}
</style>
<g>
	<path class="st0" d="M443.359,166.274c-7.664-23.226-23.328-34.985-46.668-34.985c-8.254,0-17.824,1.539-29.262,4.707
		c-22.539,6.226-49.793,23.782-69.031,37.664c-0.946,0.668-1.95,1.367-2.859,2.02c-7.203-13.962-17.977-31.848-42.39-52.707
		c-24.977-21.328-45.13-38.574-45.13-38.574l-0.152-0.133l-0.152-0.125c-11.258-9.293-42.84-36.77-53.645-52.098
		c-4.938-7.008-7.782-11.742-9.859-15.203C140.43,10.543,134.102,0,120.047,0c-1.832,0-3.684,0.211-5.508,0.621
		c-7.676,1.738-13.817,6.891-17.43,14.329c-2.434-0.758-4.906-1.137-7.398-1.137h-0.008c-5.512,0-10.992,1.777-15.141,5.406
		c-12.434,10.898-8.606,26.371-6.871,33.375c0.153,0.61,0.375,1.387,0.664,2.297c-6.594,1.508-12.179,5.566-15.527,11.489
		c-4.914,8.691-4.07,18.644,2.508,29.582c0.558,0.926,1.351,2.153,2.359,3.622c-2.394,2.285-4.328,5.094-5.629,8.308
		c-4.218,10.414-0.621,22.41,5.614,30.469l-1.031,4.918c-1.555,7.41,0.062,21.312,9.164,34.91
		c-2.977,7.063-2.719,15.172,0.785,22.043c3.008,5.89,8.363,14.211,17.282,21.938c-1.157,9.359,3.136,18.606,11.625,24.39
		c3.098,2.114,6.254,5.184,9.598,8.434c3.106,3.024,6.434,6.262,10.207,9.137c3.961,10.07,11.515,20.656,21.57,27.454
		c1.554,5.355,4.195,10.566,7.832,15.254c6.898,8.89,16.738,14.957,27.969,17.477c3.793,6.206,7.972,10.125,10.898,12.504
		c3.14,4.468,9.914,11.492,26.175,25.453c1.02,0.89,1.996,1.75,3.082,2.691c-2.954,2.313-6.758,5.043-10.457,7.699
		c-13.73,9.863-22.391,16.317-27.184,24.301c-5.61,9.523-7.328,19.516-5.359,28.195c-2.149,8.622-2.054,17.762,0.5,25.348
		c0.226,0.676,0.473,1.332,0.738,1.98c-0.145,4.703,0.637,9.418,2.351,13.836c1.527,3.93,3.746,7.512,6.492,10.578
		c1.301,3.942,3.398,7.742,6.246,11.262c6.691,8.278,17.406,14.551,27.848,16.691c5.426,4.61,12.301,7.149,19.984,7.149
		c15.125,0,29.367-10.031,42.66-20.309l0.574-0.445l0.543-0.477c23.71-20.981,38.179-47.535,45.828-85.477l20.449-1.386
		c9.364-0.633,18.84-7.016,22.958-19.797l7.476-0.29c2.387-0.086,4.063-2.382,3.43-4.679l-4.223-15.363v-0.059v-0.41
		c-0.05-9.118-2.976-17.821-8.133-25.066c7.672-18.004,9.012-33.52,10.203-47.305c0.442-5.074,0.855-9.867,1.566-14.508
		c1.614-10.668,18.02-40.922,22.918-47.918c2.246-3.207,7.136-7.664,11.558-11.242c8.558,0.554,18.859,2.344,22.652,3.004
		l18.703,3.254c5.16,0.902,9.726-3.43,9.102-8.633l-2.258-18.851C458.879,186.649,453.824,174.554,443.359,166.274z
		 M407.172,195.156c-0.879,0-1.742,0.02-2.57,0.051c0,0-15.348,10.742-22.336,20.722c-4.297,6.137-24.094,40.442-26.629,57.176
		c-2.918,19.031-1.226,37.07-11.434,59.168c-1.992,4.297-3.867,7.914-5.703,11.039c0.047,0.027,0.094,0.05,0.141,0.074
		c0,0.004,0,0.004,0,0.004l0.031,0.012c0.305,0.164,0.61,0.328,0.914,0.488c6.012,3.203,11.852,9.391,13.738,16.09
		c0.118,0.434,0.278,0.855,0.363,1.297c0.098,0.492,0.11,0.988,0.161,1.48c0.066,0.59,0.16,1.172,0.16,1.766
		c0,0.016,0,0.027,0,0.039c-3.078,0.352-6.813,5.215-6.813,5.215c-0.07,7.191-2.094,10.992-3.949,11.874
		c-0.231,0.098-0.454,0.298-0.688,0.313c-0.934-7.285-2.562-7.782-3.531-7.782c-0.148,0-0.281,0.012-0.394,0.012
		c-0.098,0-0.18-0.008-0.246-0.043c-2.21,1.406-4.222,1.871-5.91,1.871c-2.321,0-3.942-0.859-4.626-1.39
		c-0.094-0.094-0.191-0.183-0.254-0.27c5.598-2.203,8.687-15.382,2.43-17.816c-0.578-0.227-1.172-0.36-1.766-0.5
		c-5.586,4.734-12.137,7.453-21.512,11.144c-4.605,53.496-17.578,84.195-43.515,107.141c-9.95,7.691-21.195,15.726-29.238,15.726
		c-2.442,0-4.531-0.859-6.254-2.57c0.633-1.07,1.316-2.09,1.898-3.187c4.808-9.07,8.09-18.446,8.09-18.446l0.023-0.066
		c0.344-0.988-0.042-2.117-0.98-2.668c-1.066-0.625-2.438-0.266-3.062,0.797c0,0-4.981,8.485-10.946,15.86
		c-1.054,1.312-2.145,2.535-3.226,3.695c-6.352-0.856-14.551-5.477-17.832-11.336c1.758-1.477,3.519-3.058,5.191-4.726
		c7.34-7.309,13.152-15.473,13.152-15.473l0.039-0.058c0.61-0.856,0.551-2.047-0.199-2.836c-0.851-0.894-2.266-0.934-3.164-0.082
		c0,0-7.168,6.801-15.078,12.11c-1.344,0.91-2.68,1.668-4.012,2.449c-4.23-3.472-6.129-9.898-3.321-15.89
		c-4.48-2.008-5.222-11.926-2.304-20.027c0.121-0.324,0.27-0.625,0.402-0.942c0.347-0.859,0.699-1.722,1.133-2.519
		c-3.375-2.836-3.606-8.981,0.461-15.887c4.148-6.906,23.945-19.031,34.461-27.703c6.035-4.91,12.546-10.21,17.332-16.113
		c0.07-0.086,0.16-0.168,0.23-0.254h-0.004c0.031-0.042,0.074-0.078,0.106-0.121c-21.156-17.289-43.375-36.246-45.051-40.91
		c-0.234-2.152-9.25-4.023-13.629-19.574c-0.949,0.07-1.878,0.102-2.781,0.102c-20.598,0-29.586-17.094-27.078-26.891
		c-12.039-1.5-22.965-17.851-23.445-26.855c-8.278-3.199-15.734-14.313-26.286-21.504c-2.207-1.504-2.695-3.266-1.718-4.902
		c0.038-0.066,0.102-0.137,0.148-0.203c0.985-1.453,3.199-2.758,6.39-3.703c0.52-0.152,1.012-0.308,1.59-0.434
		c0.683-0.16,1.449-0.277,2.207-0.402c1.738-0.242,3.57-0.445,5.722-0.445c0.281,0,0.562,0,0.851,0.008
		c-0.14-0.039-0.254-0.094-0.394-0.13c0.156-0.003,0.278-0.023,0.434-0.027c-22.953-5.906-33.094-20.378-36.949-27.93
		c-1.282-2.515,0.27-5.606,3.054-6.05c2.156-0.344,5.035-0.626,8.703-0.626c1.836,0,3.942,0.106,6.179,0.274
		c0.848,0.106,1.661,0.172,2.559,0.348c-0.129-0.055-0.234-0.122-0.363-0.176c0.152,0.012,0.277,0.016,0.43,0.031
		c-26.695-11.984-29.328-32.718-28.582-36.281c0.894,0.082,8.57,2.453,22.992,5.683c2.57,0.618,5.309,1.266,8.305,1.957
		c-0.234-0.098-0.418-0.203-0.648-0.301c0.25,0.055,0.457,0.102,0.71,0.153c-25.339-10.375-29.351-25.25-33.48-29.25
		c-3.688-3.57-5.492-11.05-1.875-11.05c0.434,0,0.95,0.11,1.543,0.344c4.847,1.918,11.382,3.187,35.5,10.961
		c3.621,1.21,7.554,2.55,12.015,4.106c-0.324-0.13-0.644-0.348-0.969-0.489c0.352,0.118,0.668,0.219,1.028,0.34
		c-21.238-8.512-43.199-35.774-49.11-45.586c-3.754-6.238-2.844-8.462,0.043-8.462c3.277,0,9.109,2.86,13.594,5.985
		c7.542,5.25,18.062,11.234,34.438,17.754c1.996,0.832,3.89,1.664,5.996,2.492c-0.168-0.113-0.321-0.242-0.489-0.355
		c0.203,0.074,0.375,0.149,0.578,0.222c-24.176-16.25-37.73-48.636-39.305-54.968c-1.141-4.602-2.05-9.966-0.258-11.262
		c0.023-0.019,0.058-0.023,0.082-0.042c0.25-0.157,0.535-0.258,0.887-0.258c0.301,0,0.645,0.063,1.031,0.196h0.004
		c0.386,0.133,0.816,0.335,1.293,0.613c4.539,2.645,7.734,8.531,19.43,21.106c10.782,11.59,18.684,16.218,42.332,31.434l6.191,4.183
		c-0.851-0.586-1.605-1.168-2.43-1.758c0.84,0.543,1.641,1.062,2.52,1.629c-48.012-33.027-47.668-64.71-42.059-70.281
		c0.086-0.074,0.157-0.176,0.246-0.246c0.274-0.226,0.558-0.355,0.848-0.461c0.125-0.054,0.25-0.114,0.386-0.16
		c0.191-0.035,0.379-0.066,0.551-0.066c2.922,0,3.835,5.359,16.086,22.746c14.898,21.133,57.617,56.375,57.617,56.375
		s20.161,17.254,45.145,38.594c35.172,30.043,37.09,50.93,49.539,68.715c0.058,0.086,0.102,0.179,0.16,0.266l0.012-0.008
		c0.031,0.043,0.058,0.09,0.09,0.133c0,0,50.977-42.332,84.594-51.617c9.356-2.594,17.051-3.91,23.402-3.91
		c16.418,0,23.856,8.809,27.786,27.234c11.137,4.371,13.382,15.926,13.679,17.805c0.016,0.183,0.024,0.305,0.02,0.378
		C428.266,196.93,416.446,195.156,407.172,195.156z" style="fill: rgb(253, 255, 252);"></path>
	<ellipse class="st0" cx="397.402" cy="175.209" rx="5.817" ry="6.51" style="fill: rgb(253, 255, 252);"></ellipse>
</g>
</svg>
