<!--?xml version="1.0" encoding="utf-8"?-->
<!-- Generator: Adobe Illustrator 18.1.1, SVG Export Plug-In . SVG Version: 6.00 Build 0)  -->

<svg version="1.1" id="_x31_0" xmlns="http://www.w3.org/2000/svg" xmlns:xlink="http://www.w3.org/1999/xlink" x="0px" y="0px" viewBox="0 0 512 512" style="width: 256px; height: 256px; opacity: 1;" xml:space="preserve">
<style type="text/css">
	.st0{fill:#374149;}
</style>
<g>
	<path class="st0" d="M481.791,216.183c-8.098-18.164-22.91-32.527-41.706-40.449c-11.68-4.922-24.672-7.309-38.442-7.207
		l-0.817-0.117c10.11-9.637,18.039-20.672,23.035-32.532c7.93-18.801,8.504-39.426,1.618-58.078
		c-7.016-19.016-20.894-33.711-39.082-41.375c-1.906-0.805-3.886-1.332-5.84-1.961c-0.355-0.118-0.706-0.25-1.062-0.359
		c-2.062-0.626-4.129-1.157-6.23-1.59c-0.297-0.062-0.598-0.098-0.894-0.156c-4.054-0.778-8.156-1.183-12.297-1.234
		c-0.266,0-0.527-0.039-0.797-0.039c-0.106,0-0.211,0.016-0.321,0.016c-2.191,0.011-4.378,0.113-6.578,0.328
		c-0.711,0.066-1.43,0.191-2.141,0.278c-1.774,0.226-3.554,0.324-5.324,0.687c-7.703-12.004-18.68-21.332-31.863-26.89
		c-14.126-5.958-29.57-7.102-44.672-3.321c-23.325,5.848-43.024,23.02-52.688,45.938c-4.339,10.297-6.531,21.25-7.106,32.371
		c-0.14,2.172-0.316,4.332-0.343,6.554c-9.254-9.625-20.106-17.519-32.406-22.706c-15.953-6.727-33.789-8.161-50.226-4.039
		c-22.551,5.648-40.5,20.777-49.23,41.5c-5.562,13.183-6.906,27.523-4.039,41.492c-12,7.699-21.324,18.676-26.883,31.855
		c-7.668,18.184-7.343,38.395,0.91,56.91c8.102,18.16,22.914,32.523,41.715,40.446c11.675,4.926,24.664,7.308,38.434,7.21
		l0.82,0.118c-10.11,9.637-18.035,20.668-23.035,32.531c-16.515,39.168,0.289,83.781,37.461,99.453
		c1.902,0.801,3.875,1.325,5.824,1.954c0.364,0.117,0.723,0.254,1.09,0.367c2.054,0.625,4.121,1.156,6.218,1.586
		c0.301,0.062,0.61,0.102,0.914,0.16c4.054,0.778,8.152,1.184,12.293,1.23c0.262,0.004,0.523,0.039,0.785,0.039l0,0
		c0.106,0,0.211-0.015,0.317-0.015c2.195-0.008,4.386-0.114,6.59-0.328c0.703-0.066,1.418-0.188,2.126-0.274
		c1.777-0.23,3.554-0.324,5.332-0.688c7.699,12,18.675,21.329,31.863,26.887c14.129,5.957,29.574,7.106,44.668,3.32
		c23.332-5.847,43.031-23.019,52.691-45.938c4.34-10.293,6.531-21.25,7.106-32.371c0.144-2.171,0.32-4.332,0.347-6.554
		c9.25,9.625,20.102,17.52,32.402,22.707c15.958,6.722,33.786,8.16,50.219,4.043c22.554-5.653,40.5-20.782,49.238-41.504
		c5.562-13.184,6.906-27.52,4.038-41.489c12-7.703,21.329-18.679,26.883-31.859C490.374,254.907,490.05,234.695,481.791,216.183z
		 M289.05,31.172c4.102,0.336,8.121,1.285,11.957,2.898c9.847,4.156,17.535,12.175,21.652,22.594l5.657,14.301l0.098,0.254h0.004
		l0.058,0.149l14.582-6.106c2.035-0.851,4.133-1.547,6.234-2.074c4.203-1.05,8.438-1.422,12.598-1.141
		c0.18,0.012,0.356,0.035,0.531,0.051c4.094,0.332,8.11,1.281,11.934,2.894c10.196,4.301,18.024,12.66,22.039,23.539
		c4.149,11.246,3.758,23.785-1.098,35.301c-9.035,21.434-33.847,40.039-63.214,47.398c-15.25,3.82-29.879,4.015-41.188,0.558
		l-4.218-1.293l-3.848-2.106c-29.863-16.359-53.934-71.778-38.566-108.222c5.894-13.989,17.73-24.418,31.657-27.906
		c4.202-1.054,8.441-1.422,12.605-1.141C288.698,31.133,288.874,31.16,289.05,31.172z M428.038,204.301
		c11.523,4.859,20.558,13.562,25.442,24.511c4.722,10.59,4.957,22.039,0.66,32.234c-4.153,9.848-12.176,17.539-22.594,21.657
		l-14.297,5.652l-0.27,0.102l0.004,0.004l-0.149,0.058l6.114,14.59c4.324,10.324,4.422,21.437,0.27,31.281
		c-4.914,11.66-15.199,20.215-28.207,23.477c-10.102,2.531-20.695,1.656-30.637-2.535c-36.454-15.367-57.918-71.844-47.961-104.406
		l1.285-4.203l2.114-3.859c9.675-17.66,33.504-33.867,59.297-40.332c2.106-0.527,4.195-0.969,6.277-1.359
		c0.246-0.043,0.497-0.098,0.746-0.141C401.655,198.258,416.331,199.367,428.038,204.301z M282.924,270.575
		c-2.21-2.332-4.519-4.469-6.851-6.531c-0.43-0.414-0.844-0.852-1.278-1.262c2.535-1.738,5.527-2.976,8.641-3.5
		c-0.199,2.196-0.184,4.485-0.242,6.742C283.116,267.551,283.007,268.992,282.924,270.575z M259.061,236.031
		c-0.648-2.965-1.55-5.898-2.718-8.762c-0.942-2.317-2.137-4.473-3.367-6.598c-0.278-0.528-0.485-1.059-0.77-1.594
		c5.98-1.277,11.754-3.675,16.886-6.91c0.649,2.98,1.555,5.922,2.726,8.805c0.946,2.324,2.145,4.484,3.383,6.617
		c0.27,0.523,0.477,1.043,0.754,1.566c-0.542,0.118-1.094,0.246-1.637,0.387c-4.832,1.21-9.37,3.195-13.601,5.66
		C260.171,235.5,259.604,235.719,259.061,236.031z M244.725,188.907c0.332-3.692,0.473-7.489,0.41-11.344
		c2.238,2.371,4.578,4.527,6.942,6.621c0.438,0.418,0.851,0.86,1.293,1.274c-2.191,1.504-4.758,2.539-7.422,3.153
		C245.534,188.687,245.151,188.855,244.725,188.907z M217.823,242.895c2.274-2.172,4.356-4.442,6.371-6.734
		c0.41-0.434,0.84-0.844,1.25-1.274c0.859,1.258,1.594,2.622,2.179,4.066c0.551,1.356,0.934,2.754,1.203,4.16
		c0.012,0.102,0.039,0.196,0.047,0.298c-3.371-0.313-6.84-0.426-10.356-0.402L217.823,242.895z M100.123,243.938
		c-11.523-4.856-20.558-13.559-25.438-24.508c-4.726-10.594-4.961-22.043-0.664-32.238c4.153-9.844,12.176-17.539,22.598-21.656
		l14.29-5.649l0.27-0.106l-0.004-0.004l0.148-0.054l-6.109-14.594c-4.325-10.328-4.422-21.438-0.27-31.285
		c4.91-11.657,15.191-20.211,28.203-23.473c10.102-2.531,20.699-1.657,30.644,2.539c36.45,15.366,57.918,71.839,47.958,104.402
		l-1.286,4.203l-2.113,3.86c-9.676,17.66-33.504,33.87-59.294,40.332c-2.098,0.527-4.183,0.969-6.254,1.355
		c-0.262,0.047-0.527,0.102-0.789,0.148C126.495,249.98,111.831,248.871,100.123,243.938z M239.104,417.067
		c-4.098-0.336-8.118-1.286-11.946-2.898c-9.851-4.153-17.539-12.176-21.656-22.59l-5.813-14.71l-14.586,6.11
		c-10.274,4.297-21.488,4.406-31.301,0.269c-21.414-9.027-30.809-35.426-20.938-58.839c9.035-21.434,33.848-40.035,63.215-47.395
		c15.25-3.824,29.878-4.019,41.191-0.562l4.218,1.294l3.848,2.105c29.863,16.36,53.93,71.782,38.566,108.227
		c-5.898,13.984-17.734,24.414-31.66,27.906c-4.203,1.055-8.442,1.422-12.606,1.141C239.459,417.11,239.284,417.082,239.104,417.067
		z M310.335,205.347c-2.27,2.164-4.344,4.43-6.359,6.723c-0.41,0.434-0.844,0.847-1.254,1.285c-0.863-1.262-1.598-2.625-2.183-4.074
		c-0.59-1.453-1.02-2.945-1.289-4.457c3.386,0.32,6.867,0.43,10.402,0.406L310.335,205.347z" style="fill: rgb(48, 178, 127);"></path>
	<path class="st0" d="M132.756,433.25c-3.668-1.558-7.222-3.305-10.59-5.258c-0.469,0.355-0.957,0.637-1.446,0.922
		c-8.965,5.043-17.195,10.462-25.687,14.508c-4.195,2.09-8.121,4.274-12.066,6.379c-4.043,1.734-7.914,3.504-11.637,5.234
		c-7.195,3.801-14.32,6.305-20.446,8.961c-3.007,1.39-5.902,2.598-8.57,3.746c-2.707,0.996-5.188,1.937-7.446,2.824l-0.301,0.074
		c-7.95,3.031-12.363,11.566-10.289,19.839l2.187,8.719c2.183,8.722,10.93,14.281,19.82,12.453l0.825-0.207
		c2.726-0.605,5.695-1.187,8.855-1.98c3.141-0.867,6.543-1.957,10.168-3.106c7.218-2.129,15.414-4.82,23.965-8.645
		c4.32-1.882,8.778-3.874,13.379-5.91c4.55-2.258,9.117-4.762,13.816-7.375c9.562-4.875,18.793-11.422,28.504-17.934
		c4.906-3.386,9.547-7.187,14.375-10.875c2.672-2.106,6.918-5.566,9.511-7.656c1.446-1.242,2.871-2.554,4.321-3.797
		c0.449-0.434,0.847-0.774,1.316-1.133c-0.847-0.824-1.695-1.653-2.484-2.57C159.151,441.015,145.448,438.617,132.756,433.25z" style="fill: rgb(48, 178, 127);"></path>
</g>
</svg>
