<!--?xml version="1.0" encoding="utf-8"?-->
<!-- Generator: Adobe Illustrator 18.1.1, SVG Export Plug-In . SVG Version: 6.00 Build 0)  -->

<svg version="1.1" id="_x31_0" xmlns="http://www.w3.org/2000/svg" xmlns:xlink="http://www.w3.org/1999/xlink" x="0px" y="0px" viewBox="0 0 512 512" style="width: 256px; height: 256px; opacity: 1;" xml:space="preserve">
<style type="text/css">
	.st0{fill:#374149;}
</style>
<g>
	<path class="st0" d="M438.802,172.275c-24.754-9.5-55.039-4.91-80.578,7.41c-0.117,0.058-0.238,0.105-0.351,0.164
		c-1.77,0.859-3.485,1.773-5.203,2.703c-0.863,0.468-1.726,0.937-2.578,1.422c-1.515,0.867-3.004,1.754-4.473,2.676
		c-0.972,0.609-1.922,1.242-2.874,1.878c-1.383,0.918-2.766,1.832-4.098,2.801c-0.835,0.61-1.625,1.254-2.445,1.879
		c-2.625,2.015-5.122,4.11-7.492,6.285c-0.614,0.562-1.254,1.11-1.848,1.68c-1.242,1.199-2.402,2.434-3.558,3.672
		c-0.618,0.656-1.226,1.312-1.817,1.98c-1.106,1.254-2.16,2.52-3.172,3.809c-0.558,0.715-1.09,1.442-1.621,2.168
		c-0.926,1.266-1.851,2.531-2.68,3.824c-0.77,1.192-1.437,2.414-2.125,3.63c-0.434,0.773-0.961,1.527-1.355,2.312h-0.004
		c-19.508-7.488-29.25-29.375-21.762-48.882c41.34,11.191,105.859-16.485,123.203-61.669c12.379-32.25-2.058-67.789-32.25-79.379
		c-14.637-5.617-30.285-4.558-43.942,1.688c-5.968-13.778-16.89-25.035-31.527-30.653c-30.191-11.59-64.699,5.161-77.078,37.41
		c-5.461,14.222-6.27,30.282-3.648,46.219c0.262,1.598,0.644,3.179,0.976,4.77c0.317,1.531,0.578,3.07,0.958,4.598
		c0.422,1.695,0.961,3.363,1.457,5.046c0.43,1.454,0.805,2.918,1.285,4.36c0.36,1.078,0.798,2.121,1.184,3.187
		c0.75,2.066,1.488,4.133,2.34,6.156c0.039,0.094,0.086,0.184,0.125,0.274c10.008,23.664,26.73,44.094,45.622,53.657
		c-7.489,19.507-29.375,29.254-48.883,21.766c5.55-20.516,1.515-46.727-9.465-70.063c-0.004-0.004-0.004-0.011-0.008-0.019
		c-0.946-2.004-2-3.957-3.043-5.914c-0.523-0.984-1-1.996-1.55-2.965c-0.726-1.285-1.543-2.508-2.313-3.762
		c-0.942-1.535-1.844-3.09-2.851-4.574c-0.836-1.242-1.758-2.402-2.641-3.606c-1-1.37-1.965-2.773-3.023-4.094
		c-10.086-12.61-22.563-22.746-36.782-28.203c-32.25-12.382-67.793,2.058-79.379,32.246c-5.617,14.637-4.558,30.286,1.687,43.938
		c-13.777,5.969-25.035,16.89-30.656,31.527c-11.586,30.188,5.164,64.696,37.418,77.074c24.808,9.524,55.179,4.894,80.758-7.492
		c0.047-0.023,0.094-0.043,0.141-0.066c1.797-0.871,3.547-1.805,5.293-2.754c0.832-0.45,1.66-0.898,2.477-1.363
		c1.543-0.883,3.058-1.786,4.55-2.723c0.938-0.59,1.856-1.199,2.774-1.809c1.414-0.941,2.824-1.874,4.188-2.863
		c0.773-0.566,1.507-1.164,2.266-1.746c2.706-2.07,5.281-4.226,7.718-6.469c0.586-0.535,1.195-1.058,1.766-1.606
		c1.25-1.203,2.414-2.446,3.578-3.687c0.609-0.657,1.218-1.305,1.805-1.969c1.105-1.254,2.164-2.524,3.175-3.817
		c0.559-0.711,1.082-1.434,1.614-2.156c0.93-1.27,1.855-2.535,2.687-3.832c0.774-1.203,1.45-2.434,2.145-3.661
		c0.426-0.766,0.946-1.507,1.336-2.281v0.004c19.508,7.484,29.254,29.371,21.766,48.879c-41.34-11.192-105.86,16.484-123.203,61.672
		c-12.379,32.25,2.058,67.785,32.246,79.375c14.641,5.617,30.29,4.558,43.946-1.688c5.969,13.778,16.887,25.035,31.528,30.657
		c30.187,11.586,64.699-5.164,77.078-37.414c5.458-14.222,6.27-30.286,3.645-46.222c-0.25-1.543-0.625-3.074-0.942-4.614
		c-0.328-1.59-0.602-3.18-0.996-4.758c-0.406-1.633-0.926-3.238-1.398-4.856c-0.445-1.523-0.84-3.05-1.344-4.558
		c-0.339-1.019-0.758-2.008-1.125-3.019c-0.766-2.122-1.523-4.242-2.394-6.317c-0.027-0.062-0.058-0.117-0.082-0.18
		c-10.004-23.699-26.746-44.168-45.661-53.742c7.489-19.508,29.371-29.254,48.883-21.766c-5.547,20.489-1.523,46.661,9.422,69.97
		c0.02,0.042,0.035,0.082,0.055,0.121c0.926,1.973,1.961,3.89,2.988,5.813c0.539,1.019,1.031,2.062,1.602,3.066
		c0.711,1.254,1.508,2.449,2.262,3.675c0.957,1.562,1.879,3.145,2.902,4.661c0.809,1.195,1.703,2.316,2.55,3.48
		c1.032,1.414,2.028,2.859,3.118,4.219c10.086,12.606,22.558,22.742,36.778,28.199c32.25,12.378,67.789-2.059,79.375-32.246
		c5.621-14.637,4.558-30.289-1.688-43.942c13.782-5.969,25.039-16.886,30.657-31.527
		C487.806,219.162,471.052,184.654,438.802,172.275z" style="fill: rgb(48, 178, 127);"></path>
	<path class="st0" d="M188.297,418.459c-14.035,2.45-28.347,1.051-41.679-4.066c-0.637-0.23-1.297-0.531-1.958-0.836
		c-1.082,0.801-2.086,1.578-2.965,2.238c-4.441,3.07-8.629,6.477-13.062,9.297c-8.934,5.414-17.11,11.184-25.598,15.574
		c-4.184,2.258-8.102,4.602-12.035,6.871c-4.043,1.89-7.918,3.812-11.637,5.695c-7.18,4.094-14.328,6.871-20.461,9.77
		c-3.008,1.512-5.906,2.828-8.574,4.082c-2.715,1.101-5.203,2.14-7.461,3.113l-0.305,0.086c-7.969,3.339-12.168,12.148-9.789,20.476
		l2.503,8.778c2.508,8.782,11.567,14.137,20.532,11.988l0.832-0.238c2.746-0.703,5.742-1.391,8.918-2.301
		c3.16-0.981,6.578-2.203,10.223-3.489c7.254-2.398,15.484-5.402,24.035-9.562c4.328-2.05,8.781-4.222,13.39-6.442
		c4.543-2.441,9.094-5.133,13.778-7.941c9.546-5.262,18.699-12.211,28.343-19.141c4.867-3.598,9.454-7.61,14.234-11.512
		c2.637-2.226,6.832-5.879,9.398-8.086c1.426-1.305,2.833-2.692,4.262-3.997c4.05-3.945,8.297-7.726,12.234-11.851
		c0.07-0.07,0.148-0.145,0.222-0.215l-0.004-0.004c0.035-0.038,0.078-0.074,0.114-0.113
		C193.106,424.127,190.61,421.401,188.297,418.459z" style="fill: rgb(48, 178, 127);"></path>
</g>
</svg>
